<svg width="194" height="160" viewBox="0 0 194 160" fill="none" xmlns="http://www.w3.org/2000/svg">
<circle cx="117.384" cy="83.1412" r="75.9117" fill="#79BD54"/>
<circle cx="55.9317" cy="55.9317" r="55.9317" fill="#79BD54"/>
<path d="M190.877 64.0581C191.618 66.9199 192.195 69.8473 192.6 72.8296C189.136 75.9041 185.828 78.7303 182.7 81.3911C179.419 84.1824 176.354 86.7805 173.471 89.3325C167.707 94.4347 162.812 99.2358 158.729 104.675C150.679 115.397 145.444 129.043 143.901 153.212L143.83 154.318C141.654 155.127 139.432 155.838 137.167 156.448L136.212 156.359L136.457 152.515C138.068 127.277 143.628 112.057 152.794 99.8472C157.318 93.8209 162.639 88.6386 168.54 83.4146C171.489 80.8038 174.619 78.1509 177.877 75.3794C181.145 72.599 184.561 69.6826 188.132 66.5024L190.877 64.0581Z" fill="white"/>
<path d="M180.542 40.8374C152.343 61.7178 137.723 77.3182 128.859 94.3967C119.93 111.601 116.652 130.609 111.844 159.027L108.059 158.473L104.272 157.919C109.027 129.813 112.447 109.544 122.027 91.0862C131.671 72.5035 147.371 56.0586 175.973 34.8798L180.542 40.8374Z" fill="white"/>
<ellipse cx="141.34" cy="70.5725" rx="17.5586" ry="10.6782" transform="rotate(130.721 141.34 70.5725)" fill="white"/>
<path d="M161.276 78.6519C149.228 104.137 152.761 108.164 178.643 95.8141" stroke="white" stroke-width="4.52514" stroke-linecap="round"/>
<path d="M91.0045 78.1532C91.0045 78.3035 90.8327 78.5235 90.4892 78.8134C90.1457 79.1032 89.8451 79.2482 89.5875 79.2482H82.9531C83.4255 77.2299 83.9676 73.8591 84.5795 69.1356C85.2021 64.4121 85.6316 60.7085 85.8677 58.0247C85.8677 57.8851 86.0395 57.6758 86.383 57.3967C86.7265 57.1068 87.0218 56.9619 87.2687 56.9619H94.0479C93.479 59.3237 92.8885 62.7321 92.2766 67.1872C91.6647 71.6315 91.2407 75.2869 91.0045 78.1532Z" fill="black"/>
<path d="M61.6973 73.9331C61.6973 72.8274 61.8744 71.303 62.2287 69.3599C62.5937 67.4169 62.7762 66.0535 62.7762 65.2698C62.7762 64.4862 62.5239 63.9333 62.0193 63.6112C62.0193 63.4395 62.175 63.1282 62.4863 62.6773C62.7976 62.2157 63.066 61.9849 63.2914 61.9849H69.5876C69.7916 62.0922 69.9902 62.2908 70.1834 62.5807C70.3767 62.8598 70.4733 63.2194 70.4733 63.6596C70.4733 64.0997 70.2371 65.5275 69.7648 67.9429C69.3031 70.3476 69.0723 72.2262 69.0723 73.5789C69.0723 74.2659 69.2441 74.7919 69.5876 75.1569C69.9419 75.5112 70.3928 75.6883 70.9403 75.6883C70.9188 75.8279 70.9081 76.005 70.9081 76.2197C70.9081 76.6921 70.8436 76.998 70.7148 77.1376C70.1888 77.4704 69.491 77.7387 68.6215 77.9427C67.7626 78.1359 66.936 78.2326 66.1416 78.2326C63.1787 78.2326 61.6973 76.7994 61.6973 73.9331ZM73.8549 78.0554C73.0068 77.4543 72.5827 76.7189 72.5827 75.8494C72.5827 74.9798 72.8082 73.0314 73.2591 70.004C73.7207 66.9767 74.0159 64.6579 74.1447 63.0476C74.1447 62.9081 74.3165 62.6988 74.66 62.4196C75.0143 62.1298 75.3148 61.9849 75.5618 61.9849H82.0995C81.5198 64.4754 81.0528 66.8157 80.6985 69.0057C80.3443 71.1957 80.1671 72.6878 80.1671 73.4822C80.1671 74.2767 80.2638 74.8617 80.457 75.2374C80.661 75.6132 80.9777 75.9728 81.4071 76.3163C81.4071 76.4666 81.2514 76.7189 80.9401 77.0732C80.6288 77.4167 80.3443 77.6421 80.0866 77.7495C78.7018 77.9535 76.6245 78.0554 73.8549 78.0554Z" fill="black"/>
<path d="M51.101 61.5991C48.5246 64.0682 47.2364 67.4015 47.2364 71.5989C47.2364 73.381 47.4725 75.1738 47.9449 76.9773C47.9341 77.1383 47.757 77.3584 47.4135 77.6375C47.0807 77.9166 46.7962 78.0562 46.56 78.0562C44.7565 77.8093 43.1946 77.0632 41.8741 75.8179C40.4893 74.5082 39.7969 72.8764 39.7969 70.9226C39.7969 68.9581 40.2853 67.2834 41.2622 65.8986C42.2499 64.503 43.5971 63.4402 45.304 62.7102C47.0109 61.9695 48.9433 61.5991 51.101 61.5991ZM48.9271 78.2816C51.5036 75.8125 52.7918 72.4792 52.7918 68.2818C52.7918 66.4997 52.5556 64.707 52.0833 62.9034C52.094 62.7424 52.2658 62.5223 52.5986 62.2432C52.9421 61.9641 53.232 61.8246 53.4681 61.8246C55.2716 62.0715 56.8282 62.8176 58.1379 64.0628C59.5335 65.3725 60.2313 67.0097 60.2313 68.9742C60.2313 70.928 59.7375 72.6027 58.7498 73.9983C57.7729 75.3831 56.431 76.4459 54.7242 77.1866C53.0173 77.9166 51.0849 78.2816 48.9271 78.2816Z" fill="black"/>
<path d="M30.5206 58.6367C29.6725 59.356 29.2485 60.2309 29.2485 61.2615C29.2485 62.2813 29.5276 63.3065 30.0858 64.3371C30.6548 65.3569 31.315 66.2265 32.0665 66.9458C32.8179 67.665 33.3976 68.2393 33.8056 68.6687C34.2243 69.0874 34.6912 69.5973 35.2065 70.1985C35.7326 70.7889 36.1459 71.3203 36.4464 71.7927C37.1872 72.9414 37.5575 73.9505 37.5575 74.82C37.5575 75.6788 37.375 76.4786 37.01 77.2193C36.6558 77.96 36.1459 78.6364 35.4803 79.2483C34.8254 79.8494 33.9827 80.3486 32.9521 80.7458C31.9323 81.143 30.8051 81.3685 29.5706 81.4221C29.9141 80.9283 30.0858 80.413 30.0858 79.8763C30.0858 79.3288 29.9731 78.7759 29.7477 78.2177C29.5222 77.6487 29.1787 77.0422 28.7171 76.3981C27.9764 75.3568 27.1444 74.3369 26.2212 73.3386C25.3087 72.3402 24.6699 71.6263 24.3049 71.1969C23.9507 70.7675 23.5481 70.2253 23.0972 69.5705C22.217 68.3038 21.7768 67.0316 21.7768 65.7541C21.7768 64.4767 22.1686 63.2904 22.9523 62.1954C23.736 61.1004 24.7934 60.2363 26.1246 59.6029C27.4665 58.9695 28.9318 58.6475 30.5206 58.6367ZM35.8828 68.3628C35.8828 67.3215 35.695 66.248 35.3192 65.1422C34.5785 62.9845 33.344 61.2454 31.6156 59.9249C31.6371 59.7317 31.8196 59.5009 32.1631 59.2325C32.5066 58.9641 32.7911 58.83 33.0165 58.83C33.8002 58.83 34.7127 58.9856 35.754 59.2969C36.8061 59.6083 37.638 59.9088 38.25 60.1987C38.3036 60.5207 38.3305 61.0843 38.3305 61.8895C38.3305 62.6839 38.2553 63.6823 38.105 64.8846C37.9547 66.0762 37.7722 67.0209 37.5575 67.7187C37.4931 67.8797 37.2623 68.03 36.8651 68.1696C36.4786 68.2984 36.1512 68.3628 35.8828 68.3628ZM28.1696 80.0212C28.0408 80.7512 27.8422 81.2396 27.5738 81.4866C26.4466 81.4866 25.1155 81.3416 23.5803 81.0518C22.0452 80.7619 20.9287 80.3916 20.2309 79.9407C20.2202 79.7045 20.2148 79.3664 20.2148 78.9262C20.2148 76.8329 20.4618 74.8468 20.9556 72.9682C20.9985 72.7964 21.181 72.5817 21.5031 72.3241C21.8251 72.0557 22.115 71.9215 22.3726 71.9215C22.6195 73.1024 23.0597 74.2886 23.693 75.4802C24.3372 76.6718 25.0618 77.6809 25.8669 78.5075C26.6828 79.3234 27.4504 79.828 28.1696 80.0212Z" fill="black"/>
<path d="M124.241 40.4885C125.701 40.9931 126.806 41.7016 127.558 42.6141C128.32 43.5158 128.701 44.482 128.701 45.5126C128.701 46.9189 128.094 48.1105 126.881 49.0874C125.668 50.0643 124.015 50.5527 121.922 50.5527C121.267 50.5527 120.548 50.4454 119.764 50.2307C120.902 49.5222 121.669 48.5989 122.067 47.461C122.41 46.4734 122.582 45.314 122.582 43.9828C122.582 43.7252 122.555 42.9361 122.501 41.6157C122.491 41.4761 122.705 41.2561 123.146 40.9555C123.596 40.6549 123.961 40.4992 124.241 40.4885ZM121.632 40.2309C120.301 41.1326 119.243 42.3189 118.46 43.7896C117.687 45.2603 117.3 46.833 117.3 48.5077C117.3 50.1824 117.944 51.5457 119.233 52.5978C120.521 53.6498 122.399 54.1759 124.869 54.1759C125.545 54.1759 126.269 54.1168 127.042 53.9987C126.538 54.7931 125.566 55.4587 124.128 55.9955C122.689 56.5215 121.181 56.7845 119.603 56.7845C118.025 56.7845 116.678 56.6289 115.561 56.3175C114.445 55.9955 113.446 55.5231 112.566 54.9005C111.696 54.2779 111.009 53.4673 110.505 52.469C110 51.4599 109.748 50.3541 109.748 49.1518C109.748 47.9387 109.936 46.8437 110.312 45.8668C110.687 44.8899 111.203 44.0526 111.858 43.3548C112.512 42.657 113.275 42.0558 114.144 41.5513C115.872 40.5744 117.864 40.0859 120.118 40.0859C120.676 40.0859 121.181 40.1342 121.632 40.2309Z" fill="black"/>
<path d="M96.6074 56.7359C97.5414 52.7853 98.2553 47.8042 98.7491 41.7925C98.7491 41.6529 98.9262 41.4436 99.2805 41.1645C99.6347 40.8854 99.93 40.7458 100.166 40.7458H106.913C105.979 44.7608 105.265 49.7365 104.772 55.6731C104.772 55.8126 104.6 56.0273 104.256 56.3172C103.913 56.5963 103.617 56.7359 103.371 56.7359H96.6074ZM106.011 38.5719H99.2805C99.4845 37.7453 99.6186 36.9348 99.6831 36.1404C99.6831 35.9901 99.8548 35.7754 100.198 35.4963C100.542 35.2064 100.837 35.0615 101.084 35.0615H107.847C107.708 35.5661 107.563 36.382 107.412 37.5091C107.412 37.6594 107.241 37.8741 106.897 38.1533C106.564 38.4324 106.269 38.5719 106.011 38.5719Z" fill="black"/>
<path d="M88.7661 30.456C87.6282 31.2826 86.6405 32.4957 85.8032 34.0953C84.9658 35.6841 84.5472 37.2568 84.5472 38.8134C84.5472 40.8209 85.2235 42.3721 86.5761 43.4671C86.5761 43.6281 86.4044 43.8535 86.0608 44.1434C85.7173 44.4225 85.4221 44.5621 85.1752 44.5621C81.2139 44.5621 78.7126 43.2255 77.6713 40.5525C77.3814 39.8117 77.2365 38.9798 77.2365 38.0565C77.2365 37.1226 77.4405 36.2047 77.8484 35.303C78.2564 34.4012 78.8522 33.5853 79.6358 32.8553C80.4195 32.1146 81.4501 31.5242 82.7276 31.084C84.0051 30.6439 85.4489 30.4238 87.0592 30.4238C87.4242 30.4238 87.9932 30.4346 88.7661 30.456ZM89.7645 31.6959C89.7645 31.5564 89.9362 31.3363 90.2798 31.0357C90.6233 30.7351 90.9239 30.5849 91.1815 30.5849C91.8149 30.5849 92.7435 30.6707 93.9673 30.8425C95.1911 31.0035 96.372 31.2558 97.5099 31.5993C96.8551 34.7769 96.109 39.7151 95.2716 46.4139C94.606 51.7278 91.67 54.3848 86.4634 54.3848C85.669 54.3848 84.9444 54.3418 84.2895 54.2559C85.2235 53.3864 85.9535 52.329 86.4795 51.0837C87.0807 49.6452 87.4886 48.4321 87.7033 47.4445C88.4226 44.1595 88.9432 41.0463 89.2653 38.1049C89.5981 35.1527 89.7645 33.0164 89.7645 31.6959ZM81.4876 53.8695C80.1887 53.7406 79.0776 53.3381 78.1544 52.6618C77.2311 51.9854 76.7695 51.2447 76.7695 50.4396C76.7695 49.6344 77.0862 48.9528 77.7196 48.3945C78.9005 47.3425 80.5591 46.8165 82.6954 46.8165C83.3931 46.8165 84.048 46.8862 84.6599 47.0258C84.0909 47.5948 83.6347 48.2925 83.2912 49.1192C82.9476 49.9458 82.7759 50.6811 82.7759 51.3252C82.7759 51.9693 82.8188 52.4578 82.9047 52.7906C82.9047 52.9516 82.7276 53.1717 82.3733 53.4508C82.0298 53.7299 81.7346 53.8695 81.4876 53.8695Z" fill="black"/>
<path d="M67.1235 35.0937C65.9856 35.9203 64.998 37.1334 64.1606 38.733C63.3233 40.3218 62.9046 41.8945 62.9046 43.4511C62.9046 45.4585 63.5809 47.0098 64.9335 48.1048C64.9335 48.2658 64.7618 48.4912 64.4183 48.7811C64.0747 49.0602 63.7795 49.1998 63.5326 49.1998C59.5713 49.1998 57.07 47.8632 56.0287 45.1902C55.7389 44.4494 55.5939 43.6175 55.5939 42.6942C55.5939 41.7603 55.7979 40.8424 56.2058 39.9407C56.6138 39.0389 57.2096 38.223 57.9932 37.493C58.7769 36.7523 59.8075 36.1619 61.085 35.7217C62.3625 35.2816 63.8063 35.0615 65.4166 35.0615C65.7816 35.0615 66.3506 35.0723 67.1235 35.0937ZM68.1219 36.3336C68.1219 36.1941 68.2937 35.974 68.6372 35.6734C68.9807 35.3728 69.2813 35.2226 69.5389 35.2226C70.1723 35.2226 71.1009 35.3084 72.3247 35.4802C73.5485 35.6412 74.7294 35.8935 75.8673 36.237C75.2125 39.4146 74.4664 44.3528 73.629 51.0516C72.9635 56.3655 70.0274 59.0225 64.8208 59.0225C64.0264 59.0225 63.3018 58.9795 62.6469 58.8936C63.5809 58.0241 64.3109 56.9667 64.8369 55.7214C65.4381 54.2829 65.846 53.0698 66.0607 52.0822C66.78 48.7972 67.3007 45.684 67.6227 42.7425C67.9555 39.7904 68.1219 37.6541 68.1219 36.3336ZM59.8451 58.5072C58.5461 58.3783 57.435 57.9758 56.5118 57.2995C55.5886 56.6231 55.127 55.8824 55.127 55.0773C55.127 54.2721 55.4436 53.5905 56.077 53.0322C57.2579 51.9802 58.9165 51.4541 61.0528 51.4541C61.7506 51.4541 62.4054 51.5239 63.0173 51.6635C62.4483 52.2325 61.9921 52.9302 61.6486 53.7568C61.3051 54.5835 61.1333 55.3188 61.1333 55.9629C61.1333 56.607 61.1762 57.0955 61.2621 57.4283C61.2621 57.5893 61.085 57.8094 60.7307 58.0885C60.3872 58.3676 60.092 58.5072 59.8451 58.5072Z" fill="black"/>
<path d="M49.7796 40.3596C51.2396 40.8642 52.3453 41.5727 53.0968 42.4852C53.859 43.3869 54.2401 44.3531 54.2401 45.3837C54.2401 46.79 53.6335 47.9816 52.4205 48.9585C51.2074 49.9354 49.5542 50.4238 47.4608 50.4238C46.806 50.4238 46.0867 50.3165 45.303 50.1018C46.441 49.3933 47.2085 48.47 47.6057 47.3321C47.9493 46.3445 48.121 45.1851 48.121 43.8539C48.121 43.5963 48.0942 42.8072 48.0405 41.4868C48.0298 41.3472 48.2445 41.1272 48.6846 40.8266C49.1355 40.526 49.5005 40.3703 49.7796 40.3596ZM47.171 40.102C45.8398 41.0037 44.7824 42.1899 43.9987 43.6607C43.2258 45.1314 42.8393 46.7041 42.8393 48.3788C42.8393 50.0535 43.4834 51.4168 44.7716 52.4689C46.0599 53.5209 47.9385 54.047 50.4076 54.047C51.0839 54.047 51.8086 53.9879 52.5815 53.8698C52.0769 54.6642 51.1054 55.3298 49.6669 55.8666C48.2284 56.3926 46.7201 56.6556 45.142 56.6556C43.5639 56.6556 42.2167 56.5 41.1002 56.1886C39.9838 55.8666 38.9854 55.3942 38.1051 54.7716C37.2355 54.1489 36.5485 53.3384 36.0439 52.3401C35.5394 51.331 35.2871 50.2252 35.2871 49.0229C35.2871 47.8098 35.475 46.7148 35.8507 45.7379C36.2264 44.761 36.7417 43.9237 37.3966 43.2259C38.0514 42.5281 38.8136 41.9269 39.6832 41.4224C41.4115 40.4455 43.4029 39.957 45.6573 39.957C46.2155 39.957 46.7201 40.0053 47.171 40.102Z" fill="black"/>
<path d="M21.8414 55.3026C20.6605 48.1422 19.2167 41.1858 17.5098 34.4334C17.5098 34.2938 17.6815 34.0845 18.0251 33.8054C18.3686 33.5263 18.6692 33.3867 18.9268 33.3867H26.5917C26.9889 37.0367 27.37 39.7205 27.735 41.4381C28.1 43.1557 28.4113 44.4976 28.669 45.4638C29.2272 47.5572 29.8338 48.6038 30.4886 48.6038C30.6711 48.6038 30.8536 48.5448 31.0361 48.4267C30.349 49.7793 29.458 51.717 28.363 54.2398C28.2879 54.4008 28.0893 54.6209 27.7672 54.9C27.4559 55.1684 27.1822 55.3026 26.946 55.3026H21.8414ZM32.1633 36.2691L32.115 34.4334C32.115 34.2938 32.2867 34.0845 32.6303 33.8054C32.9845 33.5263 33.2851 33.3867 33.532 33.3867H38.6849C37.386 35.5767 35.2175 39.8332 32.1794 46.1562C32.1042 46.328 31.911 46.5481 31.5997 46.8164C31.2884 47.0741 31.0146 47.2029 30.7785 47.2029C31.7017 43.8213 32.1633 40.1767 32.1633 36.2691Z" fill="black"/>
</svg>
